<?xml version="1.0" ?><!DOCTYPE svg  PUBLIC '-//W3C//DTD SVG 1.1//EN'  'http://www.w3.org/Graphics/SVG/1.1/DTD/svg11.dtd'><svg height="100%" style="fill-rule:evenodd;clip-rule:evenodd;stroke-linejoin:round;stroke-miterlimit:2;" version="1.1" viewBox="0 0 32 32" width="100%" xml:space="preserve" xmlns="http://www.w3.org/2000/svg" xmlns:serif="http://www.serif.com/" xmlns:xlink="http://www.w3.org/1999/xlink"><path d="M8.87,9.5l-3.865,-0c-0.796,-0 -1.559,0.316 -2.122,0.879c-0.562,0.562 -0.878,1.325 -0.878,2.121c-0,1.986 -0,5.014 -0,7c-0,0.796 0.316,1.559 0.878,2.121c0.563,0.563 1.326,0.879 2.122,0.879c-0,0 3.865,0 3.865,0l2.83,3.396c0.809,0.971 2.138,1.331 3.326,0.901c1.188,-0.43 1.979,-1.558 1.979,-2.821l-0,-15.952c-0,-1.263 -0.791,-2.391 -1.979,-2.821c-1.188,-0.43 -2.517,-0.07 -3.326,0.901l-2.83,3.396Z"/><path d="M23.998,14.613l-3.295,-3.295c-0.39,-0.39 -1.024,-0.39 -1.414,-0c-0.391,0.39 -0.391,1.024 -0,1.414l3.295,3.295l-3.295,3.295c-0.391,0.39 -0.391,1.024 -0,1.414c0.39,0.391 1.024,0.391 1.414,0l3.295,-3.295l3.295,3.295c0.39,0.391 1.024,0.391 1.414,0c0.39,-0.39 0.39,-1.024 0,-1.414l-3.295,-3.295l3.295,-3.295c0.39,-0.39 0.39,-1.024 0,-1.414c-0.39,-0.39 -1.024,-0.39 -1.414,-0l-3.295,3.295Z"/></svg>